<svg id="Layer_1" data-name="Layer 1" xmlns="http://www.w3.org/2000/svg" viewBox="0 0 144 144"><defs><style>.cls-1,.cls-2,.cls-3{fill:none;}.cls-2,.cls-3{stroke:#fcda2b;stroke-width:4px;}.cls-3{stroke-linecap:round;stroke-linejoin:round;}</style></defs><g id="Ellipse_117" data-name="Ellipse 117"><circle class="cls-1" cx="72" cy="72" r="72"/><circle class="cls-2" cx="72" cy="72" r="70"/></g><g id="banana"><path id="Path_741" data-name="Path 741" class="cls-3" d="M125.09,88.05c0-12.31-5.33-26.25-8.15-32.72a6.09,6.09,0,0,0-11.67,2.44v.57a102.51,102.51,0,0,1-4,29.71" transform="translate(-28.5 -27.68)"/><path id="Path_742" data-name="Path 742" class="cls-3" d="M93.25,100.27c-6.5,11.64-20.34,16.86-32.75,16.86v14.55H81.76c16,0,40.56-7.27,44.19-29.09" transform="translate(-28.5 -27.68)"/><path id="Path_743" data-name="Path 743" class="cls-3" d="M100.5,109.87A50.25,50.25,0,0,1,126,102.59c14.55,0,14.55,14.55,14.55,14.55" transform="translate(-28.5 -27.68)"/><path id="Path_744" data-name="Path 744" class="cls-3" d="M67.77,102.6s3.64-7.28,14.55-7.28,18.18,14.55,18.18,14.55" transform="translate(-28.5 -27.68)"/></g></svg>