<svg id="Layer_1" data-name="Layer 1" xmlns="http://www.w3.org/2000/svg" viewBox="0 0 144 144"><defs><style>.cls-1,.cls-2,.cls-3{fill:none;}.cls-2,.cls-3{stroke:#dd0510;stroke-width:4px;}.cls-3{stroke-linecap:round;stroke-linejoin:round;}</style></defs><g id="Ellipse_119" data-name="Ellipse 119"><circle class="cls-1" cx="72" cy="72" r="72"/><circle class="cls-2" cx="72" cy="72" r="70"/></g><g id="cherries"><path id="Path_739" data-name="Path 739" class="cls-3" d="M83.55,102.51s-3.19-27.35,21-41.23c0,0,0,27.76,6.64,41.23" transform="translate(-28.5 -27.68)"/><path id="Path_740" data-name="Path 740" class="cls-3" d="M97.3,132.91a22.89,22.89,0,0,0,13.89,4.77c21.09,0,32.95-29.16,16.78-37.29-3.68-1.85-7.68-.54-11,.88a14.62,14.62,0,0,1-11.72.08,17.36,17.36,0,0,0-7.81-1.78" transform="translate(-28.5 -27.68)"/><path id="cherry" class="cls-3" d="M83.13,102.54a14.85,14.85,0,0,1-5.61-1.19c-3.3-1.4-7.29-2.77-10.89-1-16.17,8.13-4.31,37.29,16.78,37.29s32.94-29.16,16.78-37.29c-3.69-1.85-7.68-.54-11,.88a14.93,14.93,0,0,1-6.1,1.27Z" transform="translate(-28.5 -27.68)"/></g></svg>