<svg id="Layer_1" data-name="Layer 1" xmlns="http://www.w3.org/2000/svg" viewBox="0 0 336.51 69.42"><defs><style>.cls-1{fill:#090a0f;}</style></defs><path id="k" class="cls-1" d="M.46,63.86V56.59l5.66-1.12V8L0,7.31V0H18.49V41.71l11-13L26,28.07V20.66H47.27v7.41l-5.13.64L31.29,40.5l11.88,15,4.1,1.07v7.27H34.81S24.27,49.52,18.49,41.71V55.45l5,1.14v7.27Z"/><path id="_1i" data-name="1i" class="cls-1" d="M52.43,56.59v7.27H75.17V56.59l-5-1.09V20.66H52.43v7.41l5.3.64V55.52Z"/><path id="_1i_dot" data-name="1i dot" class="cls-1" d="M57.73,1.65H70.2V13.43H57.73Z"/><path id="n" class="cls-1" d="M86.3,28.71l-6-.64V20.66H98.38V26c4.1-4.47,8.48-6.76,13.92-6.72,7.57.06,12.41,4.29,12.81,11.86.34,6.62.16,13.27.21,19.9,0,1.39,0,4.32,0,4.32l6,1.19v7.27h-18V36.36c0-2.59.17-5.37-2.64-6.69-3-1.4-6-.74-8.56,1.17A24.66,24.66,0,0,0,98.59,34v21.4l5.53,1.15v7.27H80.3V56.59l6-1.14Z"/><path id="e2" class="cls-1" d="M133.19,42.94c0-14.91,8.89-23.62,22.27-23.62,12.21,0,18.49,8,18.49,20,0,1.34-.18,3.95-.27,5.38H145.85c.36,7.27,4.4,11.85,11.67,11.85a20,20,0,0,0,11-3l3.77,7.36c-2.88,1.71-7.9,4.31-16.61,4.31C141.36,65.2,133.19,56.67,133.19,42.94Zm29.09-5.84c-.09-5.48-2.06-9.79-7.45-9.79s-8.35,3.77-9,9.79Z"/><path id="c" class="cls-1" d="M206.17,28.94c-5-1.74-9.56-.42-12.3,3.38-3.6,5-3.62,14.63,0,19.53s9.07,5.54,18.76,2.07c1.1,2.34,2.23,4.71,3.33,7-8,6.38-23.87,5.41-31.22-1.75-7.56-7.35-8.29-22.26-1.53-31.27,6.6-8.81,21.46-11.36,31.91-5.3V36.15h-8C206.8,33.85,206.5,31.48,206.17,28.94Z"/><path id="t" class="cls-1" d="M249.93,56.59h-6c-3.24,0-4.79-2.63-4.79-7V28.71l10.79-.64V20.66H239.14v-13H227.27v13h-6.75v7.41l6.75.64V51.53c0,8.37,3.6,13.67,13.94,13.67a41.89,41.89,0,0,0,8.72-1.34Z"/><path id="_2i_dot" data-name="2i dot" class="cls-1" d="M262.73,13.43V1.66H275.2V13.43Z"/><path id="_2i" data-name="2i" class="cls-1" d="M275.2,55.5l5.72,1.09v7.27H256.53V56.59l6.2-1.07V28.71l-6.21-.64V20.66H275.2Z"/><path id="v" class="cls-1" d="M285.73,28.71l-4.51-.64V20.65h21.2v7.42l-4.41.64s5.36,15.08,8.16,23l8.19-23-4.76-.64V20.66h26.22v7.41l-10.8.64L311.17,63.86H299.4C294.88,52.21,285.73,28.71,285.73,28.71Z"/><path id="_2i_dot-2" data-name="2i dot" class="cls-1" d="M323.56,63.84V52.07H336V63.84Z"/></svg>