<svg id="Layer_1" data-name="Layer 1" xmlns="http://www.w3.org/2000/svg" viewBox="0 0 144 144"><defs><style>.cls-1,.cls-2,.cls-3{fill:none;}.cls-2,.cls-3{stroke:#fdb558;stroke-width:4px;}.cls-3{stroke-linecap:round;stroke-linejoin:round;}</style></defs><g id="Ellipse_118" data-name="Ellipse 118"><circle class="cls-1" cx="72" cy="72" r="72"/><circle class="cls-2" cx="72" cy="72" r="70"/></g><g id="peach"><path id="Path_737" data-name="Path 737" class="cls-3" d="M106.94,82.83c13.46,0,16.83-12.76,16.83-20.19H110.3A13.46,13.46,0,0,0,96.84,76.1v5.05" transform="translate(-28.5 -27.68)"/><path id="Path_738" data-name="Path 738" class="cls-3" d="M109.08,106.76c0-11.4-7.56-21-17.68-23.46a24.21,24.21,0,0,0-4.65-.47c-13,0-23.56,9.93-23.56,22.17,0,25.34,33.65,31.68,33.65,31.68S130.5,130.34,130.5,105c0-12.24-10.55-22.17-23.56-22.17H86.75" transform="translate(-28.5 -27.68)"/></g></svg>