<svg id="Layer_1" data-name="Layer 1" xmlns="http://www.w3.org/2000/svg" viewBox="0 0 24.01 24.01"><defs><style>.cls-1{fill:none;stroke:#000;stroke-linecap:round;stroke-linejoin:round;stroke-width:2px;}</style></defs><g id="phone"><path id="Path_745" data-name="Path 745" class="cls-1" d="M110.91,104.67,108,101.76a2,2,0,0,0-2.85,0l-2.41,2.41A12.6,12.6,0,0,1,96,97.45L98.42,95a2,2,0,0,0,0-2.85l-2.91-2.91a2,2,0,0,0-2.86,0h0l-1.38,1.38a6.09,6.09,0,0,0-1.66,5.5A18.31,18.31,0,0,0,104,110.56a6.12,6.12,0,0,0,5.5-1.65l1.38-1.39a2,2,0,0,0,0-2.85Z" transform="translate(-88.49 -87.68)"/></g></svg>